<svg xmlns="http://www.w3.org/2000/svg" xmlns:xlink="http://www.w3.org/1999/xlink" viewBox="0 0 480 228">
  <g id="shadow_Image" data-name="shadow Image">
    <image id="shadow_Image-2" data-name="shadow Image" width="640" height="304" transform="scale(0.75)" xlink:href="shoe21.png"/>
  </g>
  <g id="shoe-lace"  class="g_to_interact_with" style="isolation: isolate">
    <path d="M150,81V91.5c-2.61,1.31-3.27,2.14-7.5,2.25-.58-.51-1.67-1-2.25-1.5a9.89,9.89,0,0,1-3-4.5c2.35-2.12,1.82-4.72,5.25-6C144.15,80.75,146.46,81,150,81Z"  fill-rule="evenodd"/>
    <path d="M165.75,70.5h6.75v.75c-1.67,4.25,2.06,10.42-2.25,12.75-1.27.86-3.67.8-6,.75-1.64-3.79-5-2.73-6-7.5h-.75c-.74-.76.74-.74.75-.75C160.24,74,163.52,72.79,165.75,70.5Z"  fill-rule="evenodd"/>
    <path d="M186.75,60.75a22.94,22.94,0,0,1,5.25.75c1.66,3.23,3.75,6.45,2.25,9-.89,2.7-1.13,2.74-4.5,3-4.74-3-8.94-1.35-12-6A42.88,42.88,0,0,0,186.75,60.75Z"  fill-rule="evenodd"/>
    <path d="M211.5,50.25c2.93.31,4.2.78,5.25,3,1.14,1.42,1.34,2.69,1.5,5.25-3,1.73-4.48,3.38-9,3.75-3.47-2.25-7.39-1.91-9.75-5.25C203.14,54.87,208.34,53,211.5,50.25Z"  fill-rule="evenodd"/>
    <path d="M228,52.5V50.25A12.92,12.92,0,0,1,222,48h.75A17.05,17.05,0,0,1,234,41.25c1.09-9.11,10.76-13.07,21.75-12.75,4.64-8.23,8.94-12.65,22.5-12,2.32,4.54,5.41,6.81,6.75,12.75-2.74.91-2.4,1.84-6,2.25-5.1-3.52-13.66-2.83-19.5-.75,1.28,2,1.9,1.87,2.25,5.25-2.3,1-2.18-.1-2.25,4.5h-.75c-1.49,1-4.88.83-7.5.75-2.89-2.24-6.05-3-11.25-3-.07,2.56-.83,1.67-3,3.75,2.47,2.24,3.09,4,3,9a13.46,13.46,0,0,0-3,2.25Z"  fill-rule="evenodd"/>
  </g>
  <g id="shoe-capend"  class="g_to_interact_with" style="isolation: isolate">
    <path d="M448.5,21h9.75c2,3.57,5.48,7.05,6.75,11.25L468.75,60c.67,2,4.1,7.79,4.5,9,.8,2.43-1,5.59.75,9-3.83.08-1.56-.72-3.75,1.5V78c-2.54-2-2.66-4-4.5-6.75L460.5,67.5c-7.2-.38-18.73,2.86-27,.75-3.44-.88-8-3.78-11.25-4.5-4-.87-9.3,1-14.25,0V57c.6-.77.27-.21.75-1.5,4.75-1.57,11.27-1.34,15-2.25,1-2.53,1.05-3.53,3.75-4.5,1.65-1,3.3-.15,4.5-.75,2.28-2.34,5.83-8,6.75-11.25L438,31.5C439.41,26.54,444.89,24,448.5,21Z"  fill-rule="evenodd"/>
  </g>
  <g id="shoe-cap"  class="g_to_interact_with" style="isolation: isolate">
    <path d="M339,0h2.25c3.48,9.87,16.67,28.48,11.25,43.5-.78,2.15-3.64,4.25-4.5,6-1,2,1.72,3.78-3.75,5.25-11.4,2.3-21.37-22.11-36-22.5.11-.67,1.55-1.68.75-3l-4.5-1.5c-1.78-1.35-2.1-4.52-3-6.75l-6.75-.75c-.63-2.18-1-1.93-1.5-4.5,2.78-1.9,2.71-3.48,7.5-3.75.77.6.21.27,1.5.75.28,1.56.18,1.44.75,2.25,1.44-1.33,2.35-1.42,5.25-1.5,1.42,1.61,3.07,3.65,5.25,4.5,2.64-2.18,9-2.7,13.5-4.5.65-1.48.47-4,1.5-6C330.34,4,336.92,3.34,339,0Z"  fill-rule="evenodd"/>
  </g>
  <g id="design-eight"  class="g_to_interact_with" style="isolation: isolate">
    <path d="M420.75,83.25c2.56,2.28,1.52,6.25,2.25,10.5,1.75.15,2.12.14,3,.75h-.75v.75c-6.2,2.08-17.48,5.18-26.25,5.25v-.75h-.75a53.51,53.51,0,0,0-1.5-11.25C400,87.64,405,85.7,408,84.75,411.82,83.54,417.69,85.24,420.75,83.25Z"  fill-rule="evenodd"/>
  </g>
  <g id="design-seven"  class="g_to_interact_with" style="isolation: isolate">
    <path d="M432,147.75V174h-1.5c-4.23,2.63-16.58.75-22.5.75l-57,.75a24.58,24.58,0,0,1-.75-7.5c3.26-4.64.05-8.74-1.5-12,4.16-1.33,3.65-4,3-8.25h.75c4.86,3,15.69,0,21.75,0Z"  fill-rule="evenodd"/>
  </g>
  <g id="design-six" class="g_to_interact_with"  style="isolation: isolate">
    <path d="M212.25,166.5H210v-2.25c-4.39-2.76-7.64-6.93-11.25-10.5L198,151.5c-1.73-1.24-4.34-.45-6-1.5-3.45-2.18-6.4-4.94-10.5-6.75l.75-3c-2.87-.36-3.92-1.23-6-2.25v-2.25h2.25V135c-.94-2,.3-2.16.75-5.25,2.28-.06,2.06-.57,3,0,3-2.91,3-8.25,8.25-9,4.59,6.54,9.19-6.69,11.25-8.25C220.19,101.56,245,98.76,270,93h11.25c18.55-4.15,40.64,1.26,58.5-3h10.5c11.76-2.68,26.4-2.67,36.75-8.25,4-2.18,6.51-.15,9-3.75,2.2,1.41,2.63,2.46,6,3,1.46-1.49,3-3,4.5-4.5,1.48,1.93,2.53,2.18,6,2.25,7.11-7,21.76-7.1,34.5-9.75v-.75c-1.32-.47-.73-.14-1.5-.75,12.67-.06,22.09-4.29,24,12-2.69.83-3.84,2.79-6,3.75-9.07,4-29.59,9.79-40.5,10.5v-1.5c-1.69-2.74-.53-6.37-1.5-9-10.17,3.1-18.83,2.1-27,6.75,2,3.79.75,7.22,1.5,10.5-6.17,0-9.48,2.78-13.5,4.5l-4.5-.75c-1.69.38-5.18,1.83-6.75,2.25l-10.5.75c-13,3.13-30.29,3.74-42.75,7.5-5.14,1.55-9.29.79-13.5,3-5.91,3.1-9.7,8.3-14.25,12.75.54,2.65.92,1.86,1.5,4.5a4.67,4.67,0,0,0-1.5,1.5c-2.39-.21-2.55-.9-3.75,0-4.43,4.95-1.62,8.95-3.75,15.75H282c-.79,2.12-1.71,2.52-2.25,3.75-.62,1.4.93,3.46.75,3.75H279c-1.72,3.42.47,8.53-1.5,9.75-4.24,4.47-15.31,1.39-22.5,3-11.63,2.6-28.91,3.28-41.25,3A26.14,26.14,0,0,1,212.25,166.5Z"  fill-rule="evenodd"/>
  </g>
  <g id="design-five"  class="g_to_interact_with" style="isolation: isolate">
    <path d="M312.75,30v2.25c8.95,5.6,15.42,15.33,24,21,4.42,2.93,6.33-.53,11.25,1.5,2.13.88,5.21,4.3,7.5,5.25,5.58,2.32,22.34,6.52,30.75,4.5,7.11-1.71,14.68-4.31,21.75-5.25.28,1.56.18,1.44.75,2.25,3.13,2.14,4.45-.16,8.25.75,2.57.61,3.43,2.83,5.25,3.75l9,3H432c1,.84.54,2.06.75,3.75-8.75,4.74-19.5,3.62-30,6-7.87,1.79-15.2,5.7-24,6.75-5.75.68-18.79,4.31-22.5,3-.74-.26-2.27-2.62-3-3l-4.5-.75c-4.73-2.06-9.4-6.26-13.5-9l-4.5-.75c-5.43-3.45-9.94-8.46-14.25-11.25C311,60.17,291.64,47.89,290.25,42,296.7,38.26,304.06,30.82,312.75,30Z"  fill-rule="evenodd"/>
  </g>
  <g id="design-four"  class="g_to_interact_with" style="isolation: isolate">
    <path d="M366,106.5h3v.75c-6.67,6-15.19,9.63-19.5,18-2,3.89-4.06,19.21-6.75,21-6.49-5.87-25.6-13.49-34.5-17.25-3.69-1.56-10-2.44-10.5-4.5L297,123h.75c7.41-10.87,37.42-10.25,52.5-14.25C355.84,107.27,361.82,109.21,366,106.5Z"  fill-rule="evenodd"/>
    <path d="M286.5,43.5A35.1,35.1,0,0,1,297,45c.24,7.84,6.27,8.27,10.5,12,8.7,7.67,29.07,24.5,43.5,26.25V85.5h2.25a4.67,4.67,0,0,0,1.5,1.5l-1.5,4.5h-10.5c-3.51-2.21-15.38-.18-19.5.75L304.5,91.5c-5.53,1.89-12.91,2-21,2.25-20.53.69-39.1,1.73-56.25,7.5-3.54,1.19-8.2,5.28-11.25,6-.77.18-16.92-3.17-19.5-3.75l-39.75-.75v-1.5l1.5-.75c2.46-1.89,5.28-2,8.25-1.5V96.75c5.26-.8,9-4,13.5-5.25,6.5-1.85,11.18,1.7,18,0,7.53-1.88,15-7.21,21.75-9.75,6.3-2.36,16.31,2.74,18.75,5.25,12.2-2.59,21.38-10.59,33-15.75,2.73-1.21,13.29-4.79,14.25-6.75V53.25C284.44,51,286.29,47.53,286.5,43.5Z"  fill-rule="evenodd"/>
  </g>
  <g id="logo"  class="g_to_interact_with" style="isolation: isolate">
    <path d="M239.25,66c-.88.6-1.26.58-3,.75v.75c3.27,2.76,2.46,9.69,7.5,10.5,1.19-2.78,2.78-4,3.75-6.75-1.78-2.4-1-4.32-4.5-5.25C242.28,66.44,241.57,66.08,239.25,66Z"  fill-rule="evenodd"/>
    <path d="M264.75,68.25c.62-2.43-.37-1.15,1.5-2.25,2.59.76.42-.48,2.25-1.5l2.25.75c2.87-.11,5.2-3.12,5.25-6.75-1.3-1.43-1.78-3.72-2.25-6h-4.5c-2.73,2.13-5.7,1.89-9,3.75L258,60c-2.3,1.28-4.93.19-6.75,1.5-.72,1.06-.73,2.46-.75,4.5,2.27,2.6,1.46,5.36,6,6,.8-1.5,3.75-3.77,5.25-4.5C262.63,68.1,263,68.08,264.75,68.25Z"  fill-rule="evenodd"/>
    <path d="M286.5,42c1.64,2.47-.61,15.63-.75,22.5-3.81,2.08-8.12,3.53-12,6-1.72,1.09-2.61,4.1-4.5,5.25-4,2.43-8.52,2.42-12.75,4.5-3.26,1.6-7.06,5.06-11.25,6-5.14,1.15-18.93-7-25.5-4.5-12.24,4.63-19.43,11.06-36,10.5l-.75-1.5h1.5c-.65-1.13-2.14-.56-.75-1.5,7.95-5.8,18.43-8.8,29.25-13.5,1.7-.74,8-3.38,9.75-4.5l1.5-3a44.18,44.18,0,0,1,10.5-4.5l2.25.75c2.76-1.07,7.34-4.79,10.5-6,3.83-1.46,6.43-.61,9.75-2.25,7.65-3.78,16.91-9.44,24.75-12.75C285.2,42.15,284.19,45,286.5,42Z"  fill-rule="evenodd"/>
  </g>
  <g id="design-hole"  class="g_to_interact_with" style="isolation: isolate">
    <path d="M295.5,123.75c4.63,1,9.67,4.83,13.5,6.75,4.7,2.36,8.82,2.39,13.5,4.5,5.05,2.27,10.06,6.39,15.75,8.25,0,2.18-.72,1,0,2.25,1.65,1.41,3.42,1.69,4.5,3.75-2.22.62-2.05.33-3,2.25,2.36.51,1.57.5,3,1.5-1.54,5.81-1,8.3-3,15-6.27-.86-27.14.35-30,1.5s-8.35-1.6-11.25-.75c-3.81,1.11-12.23,3.58-18,3-4.06-8.46.19-12.89,2.25-19.5,1.06-3.4-.51-6.18,0-8.25s2.72-6.07,3.75-8.25c1.68.39,2.17.87,3.75,0,3.38-3.12,1.35-6.66,3-11.25C294.81,124.22,294.69,124.32,295.5,123.75Z"  fill-rule="evenodd"/>
    <path d="M144,130.5c-.62,2.43.37,1.15-1.5,2.25-3.82-3-9.76-3.88-13.5-2.25-.55.24-.33,2.38-3.75,1.5-1.07-.28-3.64-2.71-4.5-3-2.67-.9-3.7,1.34-4.5,1.5s-1.91-1.42-2.25-1.5c-5.26-1.26-11.63.05-14.25.75-4,1.07-5.78-3.62-10.5-2.25C77,131,55,129.29,43.5,124.5a29,29,0,0,1-2.25-5.25c15-7,33.36-7.65,48-15,3.93-2,13.78-9.12,18-7.5,1.84.76,8.88,7.28,10.5,9,4.67-.69,9.21,1.64,13.5.75,10.39-2.16,36.3-6.28,50.25-3,8.38,2,16.52-3.42,21.75-1.5.35.13,1.75,2,2.25,2.25l9,2.25c-.77.6-.21.27-1.5.75-1.1.7-2.53-.25-3,0-1.39.75-1.75,3.76-3,4.5h-3.75c-2.74,1.65-3.54,7.07-6,9s-9.33,3.49-12,5.25c-1.11,1.94.44,3.93-1.5,6-.72.77-.75-.75-.75-.75-1.23-.44-6.07,5.1-6.75,6-2.3-1.62-5-3.68-8.25-4.5l-5.25.75c-.17,0-1.63-1.14-3-.75s-1.86,2.94-4.5,2.25C151.19,133.93,149.61,131.12,144,130.5Z"  fill-rule="evenodd"/>
  </g>
  <g id="design-three"  class="g_to_interact_with" style="isolation: isolate">
    <path d="M166.5,96.75c-.62,2.43.37,1.15-1.5,2.25-4.34-2-14.44,4.62-18.75,6h-7.5c-6.55,1.37-13,.69-18,0s-12.24.08-12.75-7.5c2.72-2.58,3.89-3.17,9.75-3,3.18-2,7.91-1,12-2.25,2.3-.68,8.94-4.63,9-4.5,1,1.31,1.26,3.17,1.5,5.25l6.75.75a7.1,7.1,0,0,1,3-2.25V80.25c3.65-.77,4.85-2.3,8.25-3V79.5c3.72,2.43,5,5.13,11.25,5.25a8.83,8.83,0,0,1,2.25-1.5c-.14-1.79,0-11.7,2.25-12.75,3.66-2.6,12.15,2.35,18.75,3a13.46,13.46,0,0,1,2.25-3c-.5-3.61-1.77-5.17-3-9,10.05-4.21,11.79,1,22.5,0V59.25c1.56-.28,1.44-.18,2.25-.75.6-.88.58-1.26.75-3a8.77,8.77,0,0,1-1.5-3.75c3.94-1,4.3-2.65,9-3,1.18,1.37.66,1,3,1.5V52.5c4.58.08,7.07.61,10.5,0,1.13-2.1,1.53-3.72,1.5-7.5a8.17,8.17,0,0,1-3-3.75c4.89-1.4,2-2.86,9-3,2.73,2.82,7,3.13,12.75,3V40.5h.75V36c2.15,0,1.94.7,2.25-3a6.64,6.64,0,0,1-2.25-2.25,21.66,21.66,0,0,1,6.75-.75c3.29-2.31,10.13.93,15.75,1.5,1.09-1.59,2.13-1.87,3-3.75a14.88,14.88,0,0,1-3-9c2.68-.48,6-2.9,9.75-1.5,6,2.23,16,7.38,17.25,14.25-4.7,1.73-6.51,3.92-10.5,5.25l-3-.75-6,3a76.2,76.2,0,0,1-14.25,9C252.49,58.26,230.07,67.16,207,77.25c-8.3,3.63-16.71,9.22-24,12,.41,1.44,1.23.64,0,1.5C179.16,93.45,171.41,96,166.5,96.75Z"  fill-rule="evenodd"/>
  </g>
  <g id="design-two"  class="g_to_interact_with" style="isolation: isolate">
    <path d="M474.75,78l.75,12c-2.77,16.87,9.14,73.49-12,74.25-4.2,2.82-24.44,2.31-31.5,2.25V147.75c-25.85,0-52.5.71-77.25.75-1.13,1.95-1.65,2-3.75,3-.64,5.46-.05,10.05,0,16.5a4.67,4.67,0,0,0-1.5,1.5c-3.42-.62-5.92-.09-10.5,0V168c6.43-6.89,2.67-19.69,6.75-32.25,4.74-14.59,13.59-22.8,25.5-30,3.37-2,8.69.25,11.25-.75,2.19-.86,6.54-3.73,9-4.5h12.75c14.31-3.65,25.53-7.37,39.75-12,8.26-2.69,22-3.24,25.5-10.5.65.56.85.94,1.5,1.5.28-1.56.18-1.44.75-2.25C472.63,77.85,473,77.83,474.75,78Z"  fill-rule="evenodd"/>
  </g>
  <g id="design-one"  class="g_to_interact_with" style="isolation: isolate">
    <path d="M144,130.5c4,.35,6.36,2.44,8.25,3,2.93.86,2.39-2.55,5.25-1.5v1.5c3,1.52,8.77,0,10.5.75.6.27,3.79,2.68,4.5,3,3.81,1.7,7.87,1,9.75,4.5-.42.53-1.08,0-.75,1.5h.75c3.66,3.13,16.45,11.6,21.75,12v4.5c2.67,1.56,5.32,3.05,6,6.75h2.25l.75,9a10.75,10.75,0,0,0-4.5,3l-22.5-.75c-13.12,2.74-35.85,1.9-48-.75H123a133.77,133.77,0,0,1-21-2.25c-10.13-2.25-21-1-30-3-11.71-2.61-34.24-.44-42-6-1.31-1.64-.91-2.69-3-3.75-2.54-1.62-6.15,0-8.25,0-4.2-8.45-3.91-11.2-3.75-23.25l7.5-8.25c4.8-3.3,13.67-8,19.5-9.75,2.54,8.83,20.13,8.24,31.5,8.25,19.85,0,35-1.82,51.75,2.25,1-2.43.66-2,3.75-2.25,3.2,5.08,6.7.05,10.5,1.5V132l4.5.75Z"  fill-rule="evenodd"/>
  </g>
  <g id="shoe-sole"  class="g_to_interact_with" style="isolation: isolate">
    <path d="M15.75,156v2.25c1.77.83,1.34.72,2.25,2.25,3.79.11,9.29.48,12,2.25,1,.64.64,3.06,1.5,3.75,2.11,1.7,10.4,2.35,12.75,3l13.5.75c21.1,4.85,47.49,3.28,68.25,8.25l21-.75c15.45,3.42,52.1.88,65.25-2.25l8.25.75c16.48-4.58,34.5-1.58,51.75-5.25l15.75.75c7.42-2.62,15.44-1.5,21.75-3.75l6.75,1.5c10.71-2.11,19.54-1.41,33-1.5v.75h.75c-.07,2.32-.11,4.75.75,6,2.75,1.79,10.83.85,15,.75,3.57-2.21,13.63-.75,18.75-.75,15.14,0,33.48,1.83,47.25-.75v-5.25l41.25-2.25v6.75c2.12,3.15,1,14.79-.75,17.25-1.2,1.7-4.71,3.77-6,6s-.36,5.07-2.25,6.75c-2.56,1.86-4.15.06-6.75.75-2,.54-4.91,3.42-7.5,4.5-.06,1.9-.09,2.79-.75,3.75-1.67,1.84-2.63,2.69-6,3-3-4.18-5.8-6.21-13.5-6L429,213c-2.55,1.16-3.07,2-6.75,2.25-1.92-2.4-3.29-1.74-3.75-6H408c-1.59,3.66-3.12,5.79-8.25,6-1.48-2.62-2.95-1.51-3.75-5.25H384.75c-1,3.12-3.63,4.94-7.5,5.25-1.07-2.65-4.16-4.7-6-6.75-7.49-.2-10.74,2.39-13.5,6.75H352.5c-.54-4.62-2.85-6.28-7.5-6.75-3,2.52-7.81,6.58-12.75,6.75-.8-.56-.71-.45-2.25-.75v-3c-2.76-1.79-3.33-2.91-8.25-3-1.25,1.65-2.13,1.52-3,3.75-1.12,1.22-1.16,1.52-1.5,3.75h-4.5c-.35-3.83-1.32-5.7-4.5-6.75-2.35-1.53-5,.09-7.5.75-1.21,2.85-1.27,4.13-5.25,4.5v.75h-.75c-1-4.72-3-5-6-7.5l-4.5.75c-1.68,2.71-3.89,4.52-6,6.75h-3V213c-2.95-2-3.46-3-9-3-1.69,2.85-2.9,5.05-7.5,5.25-1.93-3.21-3.92-3.05-6.75-5.25l-6.75,1.5c-1.32,3.08-2.12,5.31-6,6-.88-.6-1.26-.58-3-.75l-.75-4.5c-2.56-1.5-3.7-2.24-8.25-2.25-2.6,2.39-5.17,2.37-6,6.75-3.79-.52-5.43-.76-8.25.75-.92-2.86-2.74-4.07-4.5-6-3.9,0-6.55.15-8.25,2.25l-.75,3c-.93.71-6.91,1.72-8.25,2.25-.15-3.78-.81-5-3.75-6-2.11-1.54-2.35-1-5.25-.75-2.37,2.59-5.11,4.94-7.5,7.5-2.4-.7-2.62-1.3-6-1.5L168,214.5c-2.43-1.42-3.27-2.18-7.5-2.25-2.79,3.24-4.14,5.29-10.5,5.25-2.11-2.35-4.61-4.43-6.75-6.75H138c-2.84,3.31-3.92,5.35-10.5,5.25-.77-.6-.21-.27-1.5-.75-1.12-3.37-.6-4.37-5.25-4.5-1.27-.86-3.67-.8-6-.75-1,3.81-2.81,4.51-7.5,4.5-.93-1.72-1.3-1.45-3-2.25-.06-1.9-.09-2.79-.75-3.75-1.06-.72-2.46-.73-4.5-.75-3.69-2.24-6.88,2.56-12,3-1.71-3-2.7-6.51-7.5-6.75-3.35-2.14-7.69,1.13-12,1.5-1.25-2.08-3.62-6.5-6-7.5-3.58-2.59-7.33-1.63-12.75-1.5-3-4.62-7.06-8.66-12.75-10.5-3.9-1.26-7.32.38-10.5-1.5l-3.75-5.25c-3.61-2.55-8.86-4-7.5-11.25.17-.91,1.36-3.92.75-6-.41-1.4-1.78-3.19-2.25-5.25.81-.68.06.06.75-.75Z"  fill-rule="evenodd"/>
  </g>
</svg>
